<?xml version="1.0" encoding="utf-8"?>
<!-- Generator: Adobe Illustrator 23.0.6, SVG Export Plug-In . SVG Version: 6.00 Build 0)  -->
<svg version="1.1" id="Layer_1" xmlns="http://www.w3.org/2000/svg" xmlns:xlink="http://www.w3.org/1999/xlink" x="0px" y="0px"
	 viewBox="0 0 96 20" style="enable-background:new 0 0 96 20;" xml:space="preserve">
<style type="text/css">
	.st0{fill:#363B41;}
	.st1{fill:#4BA6FF;}
	.st2{fill:#4B5FFF;}
</style>
<path class="st0" d="M29.15,4.74c-4.48,0-7.28,3.06-7.28,7.64c0,4.55,2.79,7.62,7.28,7.62c4.48,0,7.28-3.07,7.28-7.62
	C36.43,7.8,33.64,4.74,29.15,4.74z M29.17,16.82c-2.07,0-3.13-1.9-3.13-4.48s1.06-4.49,3.13-4.49c2.03,0,3.09,1.91,3.09,4.49
	S31.2,16.82,29.17,16.82z M46.26,4.74c-2.47,0-3.66,1.47-4.21,2.68h-0.13V0h-4.1v19.71h4.04v-2.37h0.18
	c0.57,1.23,1.81,2.61,4.2,2.61c3.37,0,6-2.67,6-7.61C52.24,7.26,49.5,4.74,46.26,4.74z M44.95,16.69c-1.97,0-3.11-1.73-3.11-4.37
	c0-2.64,1.12-4.32,3.11-4.32c2.03,0,3.11,1.76,3.11,4.32C48.06,14.9,46.96,16.69,44.95,16.69z M53.61,19.71h4.1V0h-4.1V19.71z
	 M65.89,4.74c-3.54,0-5.87,1.69-6.44,4.39l3.79,0.31c0.28-0.98,1.15-1.7,2.63-1.7c1.4,0,2.19,0.7,2.19,1.92V9.7
	c0,0.95-1.01,1.08-3.58,1.33c-2.93,0.27-5.55,1.25-5.55,4.55c0,2.93,2.09,4.41,4.91,4.41c2.18,0,3.6-0.95,4.32-2.33h0.12v2.05h3.89
	V9.74C72.17,6.22,69.18,4.74,65.89,4.74z M68.1,14.43c0,1.55-1.28,2.73-3.08,2.73c-1.26,0-2.17-0.59-2.17-1.71
	c0-1.15,0.95-1.72,2.4-1.92c0.9-0.13,2.36-0.34,2.85-0.66V14.43z M82.36,11.13l-2.68-0.54c-1.38-0.3-1.89-0.77-1.88-1.48
	c-0.01-0.89,0.99-1.46,2.26-1.46c1.42,0,2.27,0.78,2.47,1.73l3.75-0.23C85.93,6.42,83.74,4.74,80,4.74c-3.78,0-6.28,1.75-6.27,4.6
	c-0.01,2.21,1.39,3.65,4.27,4.23l2.56,0.51c1.29,0.26,1.88,0.73,1.9,1.47c-0.02,0.88-0.97,1.5-2.41,1.5c-1.46,0-2.43-0.63-2.69-1.83
	l-4.03,0.21c0.39,2.83,2.79,4.57,6.71,4.57c3.83,0,6.57-1.95,6.58-4.87C86.63,12.99,85.23,11.71,82.36,11.13z M95.36,16.48
	c-0.2,0.04-0.64,0.13-1.02,0.13c-0.82,0-1.39-0.31-1.39-1.44V8.01h2.78V4.93h-2.78V1.39h-4.1v3.54h-2.02v3.08h2.02v7.7
	c-0.02,2.9,1.95,4.33,4.93,4.21c1.06-0.04,1.81-0.25,2.22-0.38L95.36,16.48z"/>
<polygon class="st1" points="17.61,19.71 13.04,19.71 8.82,4.93 13.18,4.93 "/>
<polygon class="st1" points="8.78,19.71 4.22,19.71 0,4.93 4.35,4.93 "/>
<polygon class="st2" points="13.22,19.71 17.78,19.71 22,4.93 17.65,4.93 "/>
<polygon class="st2" points="4.39,19.71 8.96,19.71 13.18,4.93 8.82,4.93 "/>
</svg>
